<svg width="53" height="20" fill="none" xmlns="http://www.w3.org/2000/svg"><path fill-rule="evenodd" clip-rule="evenodd" d="M19.375 7.823v9.173c.093.82.873 2.463 3.247 2.463h3.416v-1.848h-3.416c-.485 0-1.456-.268-1.456-1.343V7.823h4.032V5.807h-4.032V2.44h-1.791v3.368H16.91v2.016h2.464ZM46.338 7.823v9.173c.093.82.873 2.463 3.247 2.463H53v-1.848h-3.415c-.485 0-1.456-.268-1.456-1.343V7.823h4.031V5.807h-4.03V2.44h-1.792v3.368h-2.464v2.016h2.464Z" fill="#000"/><path fill-rule="evenodd" clip-rule="evenodd" d="M0 0h2.283l5.275 9.211L12.936 0h2.337L8.581 11.494H6.298L0 0Zm8.583 11.494h-2.28v7.965h2.28v-7.965Z" fill="#38BFF2"/><path fill-rule="evenodd" clip-rule="evenodd" d="M26.963 0h2.283l5.275 9.211L39.899 0h2.337l-6.692 11.494h-2.283L26.963 0Zm8.582 11.494h-2.279v7.965h2.28v-7.965Z" fill="#F15525"/></svg>